# xmcd
#
# Track frame offsets:
#	150
#	9361
#	21851
#	34241
#	46689
#	57965
#	70197
#	83256
#	95462
#	106924
#	119249
#	131232
#	144747
#	156584
#	167886
#	180087
#	190965
#	203405
#
# Disc length: 2860 seconds
#
# Revision: 1
# Processed by: cddbd v1.5.2PL0 Copyright (c) Steve Scherf et al.
# Submitted via: audiograbber 1.83.01
#
DISCID=ef0b2a12
DTITLE=Gladys Knight and The Pips - Gladys Knight and The Pips
DYEAR=2007
DGENRE=Pop
TTITLE0=Every Beat of My Heart
TTITLE1=Letter Full of Tears
TTITLE2=You Broke Your Promise
TTITLE3=Come See About Me
TTITLE4=I Want That Kind of Love
TTITLE5=Jungle Love
TTITLE6=Before Now, After Then
TTITLE7=I Can`t Stand By
TTITLE8=What Shall I Do
TTITLE9=Trust In You
TTITLE10=Stay Away
TTITLE11=Get A Hole of Yourself
TTITLE12=Either Way I Lose
TTITLE13=Goodnight My Love
TTITLE14=Love Me Again
TTITLE15=One More Lonely Night
TTITLE16=Really Didn`t Mean It
TTITLE17=How Do You Say Goodbye
EXTD=
EXTT0=
EXTT1=
EXTT2=
EXTT3=
EXTT4=
EXTT5=
EXTT6=
EXTT7=
EXTT8=
EXTT9=
EXTT10=
EXTT11=
EXTT12=
EXTT13=
EXTT14=
EXTT15=
EXTT16=
EXTT17=
PLAYORDER=
